<svg width="100%" height="100%" id="svg" viewBox="0 0 1440 590" xmlns="http://www.w3.org/2000/svg" class="transition duration-300 ease-in-out delay-150"><defs><linearGradient id="gradient" x1="0%" y1="50%" x2="100%" y2="50%"><stop offset="5%" stop-color="#F78DA7"></stop><stop offset="95%" stop-color="#8ED1FC"></stop></linearGradient></defs><path d="M 0,600 C 0,600 0,200 0,200 C 96.22966507177034,214.68899521531102 192.45933014354068,229.37799043062202 280,224 C 367.5406698564593,218.62200956937798 446.3923444976076,193.17703349282297 544,184 C 641.6076555023924,174.82296650717703 757.9712918660289,181.91387559808612 871,199 C 984.0287081339711,216.08612440191388 1093.7224880382773,243.16746411483254 1188,245 C 1282.2775119617227,246.83253588516746 1361.1387559808613,223.41626794258372 1440,200 C 1440,200 1440,600 1440,600 Z" stroke="none" stroke-width="0" fill="url(#gradient)" fill-opacity="0.53" class="transition-all duration-300 ease-in-out delay-150 path-0"></path><defs><linearGradient id="gradient" x1="0%" y1="50%" x2="100%" y2="50%"><stop offset="5%" stop-color="#F78DA7"></stop><stop offset="95%" stop-color="#8ED1FC"></stop></linearGradient></defs><path d="M 0,600 C 0,600 0,400 0,400 C 118.58373205741626,381.4928229665072 237.1674641148325,362.9856459330144 321,350 C 404.8325358851675,337.0143540669856 453.91387559808607,329.55023923444975 543,333 C 632.0861244019139,336.44976076555025 761.177033492823,350.8133971291866 870,377 C 978.822966507177,403.1866028708134 1067.377990430622,441.1961722488038 1159,447 C 1250.622009569378,452.8038277511962 1345.311004784689,426.4019138755981 1440,400 C 1440,400 1440,600 1440,600 Z" stroke="none" stroke-width="0" fill="url(#gradient)" fill-opacity="1" class="transition-all duration-300 ease-in-out delay-150 path-1"></path></svg>